<?xml version="1.0" encoding="utf-8"?>
<!-- Generator: Adobe Illustrator 16.0.0, SVG Export Plug-In . SVG Version: 6.00 Build 0)  -->
<!DOCTYPE svg PUBLIC "-//W3C//DTD SVG 1.1//EN" "http://www.w3.org/Graphics/SVG/1.1/DTD/svg11.dtd">
<svg version="1.1" id="Layer_2" xmlns="http://www.w3.org/2000/svg" xmlns:xlink="http://www.w3.org/1999/xlink" x="0px" y="0px"
	 width="467.667px" height="51.121px" viewBox="0 0 467.667 51.121" enable-background="new 0 0 467.667 51.121"
	 xml:space="preserve">
<g>
	<path fill="#FFFFFF" d="M37.134,47.085c-3.906,2.824-8.593,3.228-13.423,3.228H3.683V2.578h20.028
		c4.048,0,8.238,0.538,11.647,2.622c3.693,2.287,5.824,6.253,5.824,10.354c0,3.9-1.918,8.27-6.179,10.085
		c4.758,2.084,7.244,6.319,7.244,10.757C42.247,40.632,40.755,44.464,37.134,47.085z M24.066,10.041H12.773v11.967h11.505
		c4.119,0,7.599-1.412,7.599-5.917C31.878,11.52,28.185,10.041,24.066,10.041z M24.35,29.27H12.773v13.245h11.292
		c4.261,0,8.877-1.479,8.877-6.32C32.943,31.085,29.18,29.27,24.35,29.27z"/>
	<path fill="#FFFFFF" d="M87.739,50.246l-3.267-9.144H64.445l-3.268,9.144h-9.233L69.629,2.578h10.014l17.685,47.667H87.739z
		 M74.459,13.201l-7.173,20.103h14.346L74.459,13.201z"/>
	<path fill="#FFFFFF" d="M127.545,51.121c-12.997,0-19.744-7.8-19.744-19.162V2.578h9.162v29.246c0,6.791,3.267,11.43,10.583,11.43
		c7.314,0,10.582-4.639,10.582-11.43V2.578h9.162v29.38C147.289,43.321,140.542,51.121,127.545,51.121z"/>
	<path fill="#FFFFFF" d="M199.108,47.085c-3.906,2.824-8.594,3.228-13.423,3.228h-20.028V2.578h20.028
		c4.048,0,8.238,0.538,11.647,2.622c3.693,2.287,5.824,6.253,5.824,10.354c0,3.9-1.917,8.27-6.179,10.085
		c4.758,2.084,7.245,6.319,7.245,10.757C204.222,40.632,202.73,44.464,199.108,47.085z M186.041,10.041h-11.292v11.967h11.506
		c4.119,0,7.599-1.412,7.599-5.917C193.853,11.52,190.16,10.041,186.041,10.041z M186.324,29.27h-11.576v13.245h11.292
		c4.261,0,8.877-1.479,8.877-6.32C194.918,31.085,191.154,29.27,186.324,29.27z"/>
	<path fill="#FFFFFF" d="M220.814,50.246V2.578h9.162v39.464h23.367v8.203H220.814z"/>
	<path fill="#FFFFFF" d="M266.875,50.246V2.578h35.865v7.866h-26.703v11.094h20.508v7.799h-20.508v13.041h26.703v7.867H266.875z"/>
	<path fill="#FFFFFF" d="M350.927,47.085c-3.905,2.824-8.594,3.228-13.424,3.228h-20.027V2.578h20.027
		c4.047,0,8.238,0.538,11.646,2.622c3.692,2.287,5.824,6.253,5.824,10.354c0,3.9-1.919,8.27-6.181,10.085
		c4.762,2.084,7.242,6.319,7.242,10.757C356.039,40.632,354.548,44.464,350.927,47.085z M337.858,10.041h-11.292v11.967h11.508
		c4.118,0,7.6-1.412,7.6-5.917C345.671,11.52,341.978,10.041,337.858,10.041z M338.144,29.27h-11.578v13.245h11.292
		c4.263,0,8.878-1.479,8.878-6.32C346.736,31.085,342.971,29.27,338.144,29.27z"/>
	<path fill="#FFFFFF" d="M402.533,50.246l-3.267-9.144h-20.03l-3.266,9.144h-9.232l17.684-47.667h10.017l17.687,47.667H402.533z
		 M389.25,13.201l-7.17,20.103h14.344L389.25,13.201z"/>
	<path fill="#FFFFFF" d="M454.779,50.246l-8.383-18.019h-11.148v18.019h-9.232V2.578h21.234c12.002,0,17.473,7.126,17.473,14.791
		c0,6.387-3.691,11.429-9.232,13.378l9.232,19.498H454.779z M447.25,10.175h-12.074v14.253h12.215c5.189,0,8.17-2.555,8.17-7.06
		C455.56,13.537,452.433,10.175,447.25,10.175z"/>
</g>
</svg>
